<svg width="48" height="26" viewBox="0 0 48 26" fill="none" xmlns="http://www.w3.org/2000/svg">
<path fill-rule="evenodd" clip-rule="evenodd" d="M46.1241 1.78745C46.4464 0.775048 46.1241 0.0311279 44.5897 0.0311279H39.5161C38.2261 0.0311279 37.6314 0.673834 37.3088 1.38242C37.3088 1.38242 34.7287 7.30498 31.0736 11.152C29.8911 12.2656 29.3536 12.6199 28.7085 12.6199C28.3861 12.6199 27.9192 12.2656 27.9192 11.2533V1.78753C27.9192 0.572617 27.5448 0.0311279 26.4697 0.0311279H18.4969C17.6908 0.0311279 17.2059 0.595055 17.2059 1.12943C17.2059 2.28114 19.0334 2.54669 19.2217 5.78642V12.8225C19.2217 14.3651 18.9259 14.6448 18.2809 14.6448C16.5609 14.6448 12.377 8.69588 9.89561 1.88867C9.40937 0.565584 8.92163 0.0311279 7.62492 0.0311279H2.55135C1.10177 0.0311279 0.811768 0.673834 0.811768 1.38242C0.811768 2.64799 2.53184 8.92485 8.82067 17.2263C13.0132 22.8957 18.9202 25.9689 24.2953 25.9689C27.5204 25.9689 27.9193 25.2863 27.9193 24.1106V19.8257C27.9193 18.4606 28.2249 18.1881 29.2461 18.1881C29.9986 18.1881 31.2886 18.5425 34.2988 21.2759C37.7388 24.5155 38.306 25.9689 40.2409 25.9689H45.3145C46.7641 25.9689 47.4889 25.2863 47.0708 23.9393C46.6132 22.5968 44.9708 20.6489 42.7914 18.34C41.6089 17.0239 39.8351 15.6066 39.2975 14.8978C38.5451 13.9868 38.76 13.5817 39.2975 12.7719C39.2975 12.7719 45.479 4.5715 46.1241 1.78745Z" fill="black"/>
</svg>
